<mxfile host="app.diagrams.net" modified="2023-12-29T19:33:40.456Z" agent="Mozilla/5.0 (X11; Linux x86_64) AppleWebKit/537.36 (KHTML, like Gecko) Chrome/120.0.0.0 Safari/537.36" etag="KHkmDsNmKayJzCYs4Zz7" version="22.1.15" type="github" pages="2">
  <diagram name="Page-1" id="vWjzLBg5f4gOcIBqQ3_q">
    <mxGraphModel dx="1434" dy="780" grid="1" gridSize="10" guides="1" tooltips="1" connect="1" arrows="1" fold="1" page="1" pageScale="1" pageWidth="827" pageHeight="1169" background="none" math="0" shadow="1">
      <root>
        <mxCell id="0" />
        <mxCell id="1" parent="0" />
        <mxCell id="CGPXe20brs1nsq4ZGsNQ-1" value="AWS Cloud" style="points=[[0,0],[0.25,0],[0.5,0],[0.75,0],[1,0],[1,0.25],[1,0.5],[1,0.75],[1,1],[0.75,1],[0.5,1],[0.25,1],[0,1],[0,0.75],[0,0.5],[0,0.25]];outlineConnect=0;gradientColor=none;html=1;whiteSpace=wrap;fontSize=12;fontStyle=0;container=1;pointerEvents=0;collapsible=0;recursiveResize=0;shape=mxgraph.aws4.group;grIcon=mxgraph.aws4.group_aws_cloud_alt;strokeColor=#232F3E;fillColor=none;verticalAlign=top;align=left;spacingLeft=30;fontColor=#232F3E;dashed=0;" vertex="1" parent="1">
          <mxGeometry x="10" y="10" width="800" height="750" as="geometry" />
        </mxCell>
        <mxCell id="CGPXe20brs1nsq4ZGsNQ-8" value="&lt;b&gt;Region us-east-1&lt;/b&gt;" style="points=[[0,0],[0.25,0],[0.5,0],[0.75,0],[1,0],[1,0.25],[1,0.5],[1,0.75],[1,1],[0.75,1],[0.5,1],[0.25,1],[0,1],[0,0.75],[0,0.5],[0,0.25]];outlineConnect=0;html=1;whiteSpace=wrap;fontSize=12;fontStyle=0;container=1;pointerEvents=0;collapsible=0;recursiveResize=0;shape=mxgraph.aws4.group;grIcon=mxgraph.aws4.group_region;verticalAlign=top;align=left;spacingLeft=30;dashed=1;" vertex="1" parent="CGPXe20brs1nsq4ZGsNQ-1">
          <mxGeometry x="40" y="40" width="720" height="680" as="geometry" />
        </mxCell>
        <mxCell id="CGPXe20brs1nsq4ZGsNQ-9" value="&lt;b&gt;&lt;font color=&quot;#33001a&quot;&gt;Nedamco VPC&lt;/font&gt;&lt;/b&gt;" style="points=[[0,0],[0.25,0],[0.5,0],[0.75,0],[1,0],[1,0.25],[1,0.5],[1,0.75],[1,1],[0.75,1],[0.5,1],[0.25,1],[0,1],[0,0.75],[0,0.5],[0,0.25]];outlineConnect=0;gradientColor=none;html=1;whiteSpace=wrap;fontSize=12;fontStyle=0;container=1;pointerEvents=0;collapsible=0;recursiveResize=0;shape=mxgraph.aws4.group;grIcon=mxgraph.aws4.group_vpc2;strokeColor=#8C4FFF;fillColor=none;verticalAlign=top;align=left;spacingLeft=30;fontColor=#AAB7B8;dashed=0;" vertex="1" parent="1">
          <mxGeometry x="70" y="90" width="650" height="610" as="geometry" />
        </mxCell>
        <mxCell id="CGPXe20brs1nsq4ZGsNQ-13" value="&lt;b style=&quot;background-color: rgb(255, 255, 255);&quot;&gt;Availability Zone&lt;br&gt;&lt;font style=&quot;font-size: 14px;&quot;&gt;use1-az1&lt;/font&gt;&lt;/b&gt;" style="dashed=1;verticalAlign=top;fontStyle=0;whiteSpace=wrap;html=1;" vertex="1" parent="CGPXe20brs1nsq4ZGsNQ-9">
          <mxGeometry x="30" y="30" width="280" height="350" as="geometry" />
        </mxCell>
        <mxCell id="CGPXe20brs1nsq4ZGsNQ-12" value="&lt;b style=&quot;border-color: var(--border-color); background-color: rgb(255, 255, 255);&quot;&gt;Availability Zone&lt;br style=&quot;border-color: var(--border-color);&quot;&gt;&lt;font style=&quot;font-size: 14px;&quot;&gt;use1-az2&lt;/font&gt;&lt;/b&gt;" style="dashed=1;verticalAlign=top;fontStyle=0;whiteSpace=wrap;html=1;" vertex="1" parent="CGPXe20brs1nsq4ZGsNQ-9">
          <mxGeometry x="330" y="30" width="290" height="350" as="geometry" />
        </mxCell>
        <mxCell id="CGPXe20brs1nsq4ZGsNQ-15" value="&lt;b style=&quot;border-color: var(--border-color);&quot;&gt;&lt;font color=&quot;#33001a&quot; style=&quot;background-color: rgb(255, 255, 255);&quot;&gt;Availability Zone&lt;br style=&quot;border-color: var(--border-color);&quot;&gt;&lt;font style=&quot;font-size: 14px;&quot;&gt;use1-az3&lt;/font&gt;&lt;/font&gt;&lt;/b&gt;" style="dashed=1;verticalAlign=top;fontStyle=0;whiteSpace=wrap;html=1;" vertex="1" parent="CGPXe20brs1nsq4ZGsNQ-9">
          <mxGeometry x="20" y="410" width="600" height="180" as="geometry" />
        </mxCell>
        <mxCell id="CGPXe20brs1nsq4ZGsNQ-17" value="&lt;b&gt;&lt;font color=&quot;#ea6b66&quot; style=&quot;font-size: 14px;&quot;&gt;Public subnet&lt;/font&gt;&lt;/b&gt;" style="points=[[0,0],[0.25,0],[0.5,0],[0.75,0],[1,0],[1,0.25],[1,0.5],[1,0.75],[1,1],[0.75,1],[0.5,1],[0.25,1],[0,1],[0,0.75],[0,0.5],[0,0.25]];outlineConnect=0;gradientColor=none;html=1;whiteSpace=wrap;fontSize=12;fontStyle=0;container=1;pointerEvents=0;collapsible=0;recursiveResize=0;shape=mxgraph.aws4.group;grIcon=mxgraph.aws4.group_security_group;grStroke=0;strokeColor=#7AA116;fillColor=#F2F6E8;verticalAlign=top;align=left;spacingLeft=30;fontColor=#248814;dashed=0;" vertex="1" parent="CGPXe20brs1nsq4ZGsNQ-9">
          <mxGeometry x="40" y="70" width="250" height="190" as="geometry" />
        </mxCell>
        <mxCell id="X9SBoxwkWOvbLBuxFNeH-12" value="&lt;b&gt;&lt;font color=&quot;#000000&quot;&gt;EC2 instance 1&lt;/font&gt;&lt;/b&gt;" style="points=[[0,0],[0.25,0],[0.5,0],[0.75,0],[1,0],[1,0.25],[1,0.5],[1,0.75],[1,1],[0.75,1],[0.5,1],[0.25,1],[0,1],[0,0.75],[0,0.5],[0,0.25]];outlineConnect=0;gradientColor=none;html=1;whiteSpace=wrap;fontSize=12;fontStyle=0;container=1;pointerEvents=0;collapsible=0;recursiveResize=0;shape=mxgraph.aws4.group;grIcon=mxgraph.aws4.group_ec2_instance_contents;strokeColor=#D86613;fillColor=none;verticalAlign=top;align=left;spacingLeft=30;fontColor=#D86613;dashed=0;" vertex="1" parent="CGPXe20brs1nsq4ZGsNQ-17">
          <mxGeometry x="20" y="40" width="210" height="150" as="geometry" />
        </mxCell>
        <mxCell id="X9SBoxwkWOvbLBuxFNeH-14" value="&lt;b&gt;&lt;font style=&quot;font-size: 14px;&quot; color=&quot;#000000&quot;&gt;Nginx Server&lt;/font&gt;&lt;/b&gt;" style="fillColor=#dae8fc;dashed=1;verticalAlign=top;fontStyle=0;whiteSpace=wrap;html=1;strokeColor=#6c8ebf;gradientColor=#7ea6e0;" vertex="1" parent="X9SBoxwkWOvbLBuxFNeH-12">
          <mxGeometry x="20" y="40" width="160" height="60" as="geometry" />
        </mxCell>
        <mxCell id="X9SBoxwkWOvbLBuxFNeH-1" value="&lt;b&gt;&lt;font color=&quot;#ff3333&quot; style=&quot;font-size: 14px;&quot;&gt;Public subnet&lt;/font&gt;&lt;/b&gt;" style="points=[[0,0],[0.25,0],[0.5,0],[0.75,0],[1,0],[1,0.25],[1,0.5],[1,0.75],[1,1],[0.75,1],[0.5,1],[0.25,1],[0,1],[0,0.75],[0,0.5],[0,0.25]];outlineConnect=0;html=1;whiteSpace=wrap;fontSize=12;fontStyle=0;container=1;pointerEvents=0;collapsible=0;recursiveResize=0;shape=mxgraph.aws4.group;grIcon=mxgraph.aws4.group_security_group;grStroke=0;verticalAlign=top;align=left;spacingLeft=30;dashed=0;" vertex="1" parent="CGPXe20brs1nsq4ZGsNQ-9">
          <mxGeometry x="50" y="450" width="240" height="120" as="geometry" />
        </mxCell>
        <mxCell id="X9SBoxwkWOvbLBuxFNeH-3" value="&lt;b style=&quot;border-color: var(--border-color);&quot;&gt;&lt;font color=&quot;#ff0000&quot; style=&quot;border-color: var(--border-color); font-size: 14px;&quot;&gt;Private subnet&lt;/font&gt;&lt;/b&gt;" style="points=[[0,0],[0.25,0],[0.5,0],[0.75,0],[1,0],[1,0.25],[1,0.5],[1,0.75],[1,1],[0.75,1],[0.5,1],[0.25,1],[0,1],[0,0.75],[0,0.5],[0,0.25]];outlineConnect=0;html=1;whiteSpace=wrap;fontSize=12;fontStyle=0;container=1;pointerEvents=0;collapsible=0;recursiveResize=0;shape=mxgraph.aws4.group;grIcon=mxgraph.aws4.group_security_group;grStroke=0;verticalAlign=top;align=left;spacingLeft=30;dashed=0;" vertex="1" parent="CGPXe20brs1nsq4ZGsNQ-9">
          <mxGeometry x="320" y="450" width="280" height="120" as="geometry" />
        </mxCell>
        <mxCell id="X9SBoxwkWOvbLBuxFNeH-5" value="&lt;b style=&quot;border-color: var(--border-color);&quot;&gt;&lt;font style=&quot;border-color: var(--border-color); font-size: 14px;&quot; color=&quot;#ea6b66&quot;&gt;Public subnet&lt;/font&gt;&lt;/b&gt;" style="points=[[0,0],[0.25,0],[0.5,0],[0.75,0],[1,0],[1,0.25],[1,0.5],[1,0.75],[1,1],[0.75,1],[0.5,1],[0.25,1],[0,1],[0,0.75],[0,0.5],[0,0.25]];outlineConnect=0;html=1;whiteSpace=wrap;fontSize=12;fontStyle=0;container=1;pointerEvents=0;collapsible=0;recursiveResize=0;shape=mxgraph.aws4.group;grIcon=mxgraph.aws4.group_security_group;grStroke=0;verticalAlign=top;align=left;spacingLeft=30;dashed=0;" vertex="1" parent="CGPXe20brs1nsq4ZGsNQ-9">
          <mxGeometry x="360" y="70" width="230" height="200" as="geometry" />
        </mxCell>
        <mxCell id="X9SBoxwkWOvbLBuxFNeH-13" value="&lt;font color=&quot;#000000&quot;&gt;&lt;b&gt;EC2 instance 1&lt;/b&gt;&lt;/font&gt;" style="points=[[0,0],[0.25,0],[0.5,0],[0.75,0],[1,0],[1,0.25],[1,0.5],[1,0.75],[1,1],[0.75,1],[0.5,1],[0.25,1],[0,1],[0,0.75],[0,0.5],[0,0.25]];outlineConnect=0;gradientColor=none;html=1;whiteSpace=wrap;fontSize=12;fontStyle=0;container=1;pointerEvents=0;collapsible=0;recursiveResize=0;shape=mxgraph.aws4.group;grIcon=mxgraph.aws4.group_ec2_instance_contents;strokeColor=#D86613;fillColor=none;verticalAlign=top;align=left;spacingLeft=30;fontColor=#D86613;dashed=0;" vertex="1" parent="X9SBoxwkWOvbLBuxFNeH-5">
          <mxGeometry x="30" y="30" width="180" height="170" as="geometry" />
        </mxCell>
        <mxCell id="X9SBoxwkWOvbLBuxFNeH-15" value="&lt;b style=&quot;border-color: var(--border-color);&quot;&gt;&lt;font style=&quot;border-color: var(--border-color); font-size: 14px;&quot; color=&quot;#000000&quot;&gt;Nginx Server&lt;/font&gt;&lt;/b&gt;" style="fillColor=#dae8fc;strokeColor=#6c8ebf;dashed=1;verticalAlign=top;fontStyle=0;whiteSpace=wrap;html=1;gradientColor=#7ea6e0;" vertex="1" parent="X9SBoxwkWOvbLBuxFNeH-13">
          <mxGeometry x="25" y="50" width="130" height="55" as="geometry" />
        </mxCell>
        <mxCell id="X9SBoxwkWOvbLBuxFNeH-6" value="&lt;b&gt;&lt;font style=&quot;font-size: 14px;&quot; color=&quot;#ff3333&quot;&gt;Private subnet&lt;/font&gt;&lt;/b&gt;" style="points=[[0,0],[0.25,0],[0.5,0],[0.75,0],[1,0],[1,0.25],[1,0.5],[1,0.75],[1,1],[0.75,1],[0.5,1],[0.25,1],[0,1],[0,0.75],[0,0.5],[0,0.25]];outlineConnect=0;html=1;whiteSpace=wrap;fontSize=12;fontStyle=0;container=1;pointerEvents=0;collapsible=0;recursiveResize=0;shape=mxgraph.aws4.group;grIcon=mxgraph.aws4.group_security_group;grStroke=0;verticalAlign=top;align=left;spacingLeft=30;dashed=0;" vertex="1" parent="CGPXe20brs1nsq4ZGsNQ-9">
          <mxGeometry x="50" y="230" width="240" height="135" as="geometry" />
        </mxCell>
        <mxCell id="X9SBoxwkWOvbLBuxFNeH-10" value="&lt;font color=&quot;#000000&quot;&gt;&lt;b&gt;EC2 instance 2&lt;/b&gt;&lt;/font&gt;" style="points=[[0,0],[0.25,0],[0.5,0],[0.75,0],[1,0],[1,0.25],[1,0.5],[1,0.75],[1,1],[0.75,1],[0.5,1],[0.25,1],[0,1],[0,0.75],[0,0.5],[0,0.25]];outlineConnect=0;gradientColor=none;html=1;whiteSpace=wrap;fontSize=12;fontStyle=0;container=1;pointerEvents=0;collapsible=0;recursiveResize=0;shape=mxgraph.aws4.group;grIcon=mxgraph.aws4.group_ec2_instance_contents;strokeColor=#D86613;fillColor=none;verticalAlign=top;align=left;spacingLeft=30;fontColor=#D86613;dashed=0;" vertex="1" parent="X9SBoxwkWOvbLBuxFNeH-6">
          <mxGeometry x="20" y="30" width="190" height="90" as="geometry" />
        </mxCell>
        <mxCell id="X9SBoxwkWOvbLBuxFNeH-16" value="&lt;b style=&quot;border-color: var(--border-color);&quot;&gt;&lt;font style=&quot;border-color: var(--border-color); font-size: 14px;&quot; color=&quot;#000000&quot;&gt;Nginx Server&lt;/font&gt;&lt;/b&gt;" style="fillColor=#dae8fc;strokeColor=#6c8ebf;dashed=1;verticalAlign=top;fontStyle=0;whiteSpace=wrap;html=1;gradientColor=#7ea6e0;" vertex="1" parent="X9SBoxwkWOvbLBuxFNeH-10">
          <mxGeometry x="35" y="30" width="130" height="50" as="geometry" />
        </mxCell>
        <mxCell id="X9SBoxwkWOvbLBuxFNeH-7" value="&lt;b&gt;&lt;font color=&quot;#ff0000&quot; style=&quot;font-size: 14px;&quot;&gt;Private subnet&lt;/font&gt;&lt;/b&gt;" style="points=[[0,0],[0.25,0],[0.5,0],[0.75,0],[1,0],[1,0.25],[1,0.5],[1,0.75],[1,1],[0.75,1],[0.5,1],[0.25,1],[0,1],[0,0.75],[0,0.5],[0,0.25]];outlineConnect=0;html=1;whiteSpace=wrap;fontSize=12;fontStyle=0;container=1;pointerEvents=0;collapsible=0;recursiveResize=0;shape=mxgraph.aws4.group;grIcon=mxgraph.aws4.group_security_group;grStroke=0;verticalAlign=top;align=left;spacingLeft=30;dashed=0;" vertex="1" parent="CGPXe20brs1nsq4ZGsNQ-9">
          <mxGeometry x="360" y="230" width="230" height="150" as="geometry" />
        </mxCell>
        <mxCell id="X9SBoxwkWOvbLBuxFNeH-11" value="&lt;font color=&quot;#000000&quot;&gt;&lt;b&gt;EC2 instance 2&lt;/b&gt;&lt;/font&gt;" style="points=[[0,0],[0.25,0],[0.5,0],[0.75,0],[1,0],[1,0.25],[1,0.5],[1,0.75],[1,1],[0.75,1],[0.5,1],[0.25,1],[0,1],[0,0.75],[0,0.5],[0,0.25]];outlineConnect=0;gradientColor=none;html=1;whiteSpace=wrap;fontSize=12;fontStyle=0;container=1;pointerEvents=0;collapsible=0;recursiveResize=0;shape=mxgraph.aws4.group;grIcon=mxgraph.aws4.group_ec2_instance_contents;strokeColor=#D86613;fillColor=none;verticalAlign=top;align=left;spacingLeft=30;fontColor=#D86613;dashed=0;" vertex="1" parent="X9SBoxwkWOvbLBuxFNeH-7">
          <mxGeometry x="20" y="40" width="190" height="90" as="geometry" />
        </mxCell>
        <mxCell id="X9SBoxwkWOvbLBuxFNeH-17" value="&lt;b style=&quot;border-color: var(--border-color);&quot;&gt;&lt;font style=&quot;border-color: var(--border-color); font-size: 14px;&quot; color=&quot;#000000&quot;&gt;Nginx Server&lt;/font&gt;&lt;/b&gt;" style="fillColor=#dae8fc;strokeColor=#6c8ebf;dashed=1;verticalAlign=top;fontStyle=0;whiteSpace=wrap;html=1;gradientColor=#7ea6e0;" vertex="1" parent="X9SBoxwkWOvbLBuxFNeH-11">
          <mxGeometry x="35" y="30" width="130" height="50" as="geometry" />
        </mxCell>
        <mxCell id="X9SBoxwkWOvbLBuxFNeH-8" value="&lt;font color=&quot;#000000&quot;&gt;&lt;b&gt;EC2 instance&amp;nbsp; 1&lt;/b&gt;&lt;/font&gt;" style="points=[[0,0],[0.25,0],[0.5,0],[0.75,0],[1,0],[1,0.25],[1,0.5],[1,0.75],[1,1],[0.75,1],[0.5,1],[0.25,1],[0,1],[0,0.75],[0,0.5],[0,0.25]];outlineConnect=0;gradientColor=none;html=1;whiteSpace=wrap;fontSize=12;fontStyle=0;container=1;pointerEvents=0;collapsible=0;recursiveResize=0;shape=mxgraph.aws4.group;grIcon=mxgraph.aws4.group_ec2_instance_contents;strokeColor=#D86613;fillColor=none;verticalAlign=top;align=left;spacingLeft=30;fontColor=#D86613;dashed=0;" vertex="1" parent="CGPXe20brs1nsq4ZGsNQ-9">
          <mxGeometry x="60" y="480" width="210" height="80" as="geometry" />
        </mxCell>
        <mxCell id="X9SBoxwkWOvbLBuxFNeH-9" value="&lt;font color=&quot;#000000&quot;&gt;&lt;b&gt;EC2 instance 2&lt;/b&gt;&lt;/font&gt;" style="points=[[0,0],[0.25,0],[0.5,0],[0.75,0],[1,0],[1,0.25],[1,0.5],[1,0.75],[1,1],[0.75,1],[0.5,1],[0.25,1],[0,1],[0,0.75],[0,0.5],[0,0.25]];outlineConnect=0;gradientColor=none;html=1;whiteSpace=wrap;fontSize=12;fontStyle=0;container=1;pointerEvents=0;collapsible=0;recursiveResize=0;shape=mxgraph.aws4.group;grIcon=mxgraph.aws4.group_ec2_instance_contents;strokeColor=#D86613;fillColor=none;verticalAlign=top;align=left;spacingLeft=30;fontColor=#D86613;dashed=0;" vertex="1" parent="CGPXe20brs1nsq4ZGsNQ-9">
          <mxGeometry x="340" y="480" width="230" height="80" as="geometry" />
        </mxCell>
        <mxCell id="X9SBoxwkWOvbLBuxFNeH-18" value="&lt;b style=&quot;border-color: var(--border-color);&quot;&gt;&lt;font style=&quot;border-color: var(--border-color); font-size: 14px;&quot; color=&quot;#000000&quot;&gt;Nginx Server&lt;/font&gt;&lt;/b&gt;" style="fillColor=#dae8fc;strokeColor=#6c8ebf;dashed=1;verticalAlign=top;fontStyle=0;whiteSpace=wrap;html=1;gradientColor=#7ea6e0;" vertex="1" parent="X9SBoxwkWOvbLBuxFNeH-9">
          <mxGeometry x="75" y="30" width="130" height="40" as="geometry" />
        </mxCell>
        <mxCell id="X9SBoxwkWOvbLBuxFNeH-19" value="&lt;b style=&quot;border-color: var(--border-color);&quot;&gt;&lt;font style=&quot;border-color: var(--border-color); font-size: 14px;&quot; color=&quot;#000000&quot;&gt;Nginx Server&lt;/font&gt;&lt;/b&gt;" style="fillColor=#dae8fc;strokeColor=#6c8ebf;dashed=1;verticalAlign=top;fontStyle=0;whiteSpace=wrap;html=1;gradientColor=#7ea6e0;" vertex="1" parent="CGPXe20brs1nsq4ZGsNQ-9">
          <mxGeometry x="120" y="510" width="130" height="40" as="geometry" />
        </mxCell>
      </root>
    </mxGraphModel>
  </diagram>
  <diagram id="duoeRro-X4WBvejBT7Lf" name="Page-2">
    <mxGraphModel dx="1434" dy="780" grid="1" gridSize="10" guides="1" tooltips="1" connect="1" arrows="1" fold="1" page="1" pageScale="1" pageWidth="827" pageHeight="1169" math="0" shadow="0">
      <root>
        <mxCell id="0" />
        <mxCell id="1" parent="0" />
      </root>
    </mxGraphModel>
  </diagram>
</mxfile>
